<?xml version="1.0" encoding="utf-8"?>
<!-- Generator: Adobe Illustrator 16.0.0, SVG Export Plug-In . SVG Version: 6.00 Build 0)  -->
<!DOCTYPE svg PUBLIC "-//W3C//DTD SVG 1.1//EN" "http://www.w3.org/Graphics/SVG/1.1/DTD/svg11.dtd">
<svg version="1.1" id="Capa_1" xmlns="http://www.w3.org/2000/svg" xmlns:xlink="http://www.w3.org/1999/xlink" x="0px" y="0px"
	 width="14.338px" height="14px" viewBox="0 0 14.338 14" enable-background="new 0 0 14.338 14" xml:space="preserve">
<g>
	<path fill="#FFFFFF" d="M10.297,14.019c-1.028,0-2.959-0.615-6.315-3.545C0.055,7.045,0.327,3.415,0.331,3.379
		C0.555,2.148,2.21,0.624,3.054,0.624c0.226,0,0.369,0.095,0.449,0.175c0.326,0.327,1.306,1.468,1.953,2.223l0.505,0.586
		c0.12,0.138,0.177,0.309,0.162,0.497C6.081,4.641,5.466,5.199,4.84,5.724L4.723,5.823c-0.05,0.043-0.051,0.063-0.051,0.084
		C4.671,6.055,4.837,6.552,6.416,7.979c1.04,0.938,1.785,1.413,2.216,1.413c0.128,0,0.221-0.041,0.343-0.153
		c0.094-0.084,0.197-0.21,0.308-0.341c0.34-0.407,0.724-0.866,1.213-0.866c0.145,0,0.361,0.043,0.568,0.249
		c0.128,0.13,0.326,0.313,0.557,0.528c1.028,0.962,1.897,1.798,2.114,2.297c0.099,0.225,0.06,0.485-0.115,0.78
		c-0.516,0.862-2.27,2.054-3.13,2.125C10.429,14.017,10.365,14.019,10.297,14.019z M2.994,1.307
		C2.631,1.343,1.208,2.581,1.043,3.482c0,0.006-0.18,3.312,3.413,6.449c3.48,3.039,5.244,3.367,5.841,3.367
		c0.047,0,0.091-0.002,0.133-0.006c0.786-0.063,2.623-1.492,2.638-1.931c-0.168-0.373-1.32-1.449-1.938-2.026
		c-0.238-0.224-0.442-0.414-0.574-0.546C10.36,8.751,9.999,9.159,9.834,9.358C9.7,9.518,9.573,9.668,9.459,9.771
		c-0.16,0.146-0.42,0.342-0.827,0.342c-0.64,0-1.472-0.493-2.697-1.6c-1.75-1.58-1.987-2.19-1.982-2.615
		c0.003-0.243,0.105-0.452,0.302-0.621l0.123-0.104c0.897-0.752,1.029-1.028,1.028-1.126L4.91,3.49
		C4.308,2.789,3.3,1.615,2.994,1.307z"/>
</g>
<g>
	<path fill="#FFFFFF" d="M11.698,6.744l-0.617-0.37l0,0c-0.003,0,0.237-0.611-1.028-1.845C8.698,3.208,7.959,3.269,7.95,3.271
		l-0.115-0.71c0.108-0.021,1.084-0.141,2.721,1.453C12.261,5.676,11.761,6.64,11.698,6.744z"/>
</g>
<g>
	<path fill="#FFFFFF" d="M14.173,6.582l-0.616-0.37c0-0.002,0.54-1.121-1.739-3.342C9.467,0.577,8.163,0.723,8.149,0.723
		L8.028,0.014c0.167-0.027,1.67-0.216,4.292,2.341C15.013,4.979,14.267,6.426,14.173,6.582z"/>
</g>
</svg>
