<?xml version="1.0" encoding="utf-8"?>
<!-- Generator: Adobe Illustrator 16.0.0, SVG Export Plug-In . SVG Version: 6.00 Build 0)  -->
<!DOCTYPE svg PUBLIC "-//W3C//DTD SVG 1.1//EN" "http://www.w3.org/Graphics/SVG/1.1/DTD/svg11.dtd">
<svg version="1.1" id="Capa_1" xmlns="http://www.w3.org/2000/svg" xmlns:xlink="http://www.w3.org/1999/xlink" x="0px" y="0px"
	 width="24px" height="18px" viewBox="0 0 24 18" enable-background="new 0 0 24 18" xml:space="preserve">
<g id="Page-1">
	<g id="Perfil" transform="translate(-253.000000, -470.000000)">
		<g id="BOTONES" transform="translate(-1.000000, 456.000000)">
			<g id="CHAT" transform="translate(213.000000, 0.000000)">
				<g id="Group-3" transform="translate(42.000000, 15.000000)">
					<path id="Oval-2" fill="none" stroke="#FFFFFF" d="M8.967,10.129c4.704,0,6.625-2.119,6.625-4.731
						c0-2.613-1.922-5.112-6.625-5.112C1.764,0.218,0.45,2.214,0.45,4.828c0,0.772,0.334,2.074,0.926,2.719
						c0.392,0.424,0.213,2.042-0.532,4.854c2.677-1.896,4.207-2.795,4.59-2.698C6.509,9.979,7.708,10.129,8.967,10.129z"/>
					<path id="Oval-2_1_" fill="none" stroke="#FFFFFF" d="M12.502,13.303c-3.675,0-5.75-1.627-6.592-3.375
						c3.995,0.649,6.308,0.24,8.068-1.046c0.78-0.57,2.433-2.126,1.257-5.343c4.579-1.514,6.315,2.553,6.315,4.734
						c0,0.824-0.354,1.598-0.986,2.284c-0.414,0.452-0.225,2.17,0.568,5.157c-2.843-2.016-4.47-2.969-4.875-2.864
						C15.113,13.141,13.841,13.303,12.502,13.303z"/>
				</g>
			</g>
		</g>
	</g>
</g>
</svg>
