<?xml version="1.0" encoding="utf-8"?>
<!-- Generator: Adobe Illustrator 16.0.0, SVG Export Plug-In . SVG Version: 6.00 Build 0)  -->
<!DOCTYPE svg PUBLIC "-//W3C//DTD SVG 1.1//EN" "http://www.w3.org/Graphics/SVG/1.1/DTD/svg11.dtd">
<svg version="1.1" id="Capa_1" xmlns="http://www.w3.org/2000/svg" xmlns:xlink="http://www.w3.org/1999/xlink" x="0px" y="0px"
	 width="24px" height="25px" viewBox="0 0 24 25" enable-background="new 0 0 24 25" xml:space="preserve">
<path fill="#FFFFFF" d="M23.771,6.353c-0.344-1.208-0.863-2.259-1.542-3.144l0.051-0.05l-0.722-0.722
	c-1.017-1.018-2.335-1.762-3.917-2.212l-0.289-0.083L2.807,14.688c-0.071-0.029-0.135-0.062-0.208-0.09l-0.362,0.956
	c0.042,0.016,0.078,0.034,0.119,0.051l-2.342,8.623l9.017-2.763L23.854,6.642L23.771,6.353z M17.647,1.292
	c1.284,0.407,2.356,1.034,3.188,1.866L6.677,17.197c-0.771-0.811-1.721-1.506-2.865-2.07L17.647,1.292z M1.485,22.709l1.819-6.697
	c2.275,1.1,3.696,2.685,4.342,4.81L1.485,22.709z M8.597,20.454c-0.285-0.909-0.708-1.732-1.257-2.476L21.497,3.941
	c0.509,0.689,0.916,1.491,1.206,2.406L8.597,20.454z"/>
</svg>
