<?xml version="1.0" encoding="utf-8"?>
<!-- Generator: Adobe Illustrator 16.0.0, SVG Export Plug-In . SVG Version: 6.00 Build 0)  -->
<!DOCTYPE svg PUBLIC "-//W3C//DTD SVG 1.1//EN" "http://www.w3.org/Graphics/SVG/1.1/DTD/svg11.dtd">
<svg version="1.1" id="Capa_1" xmlns="http://www.w3.org/2000/svg" xmlns:xlink="http://www.w3.org/1999/xlink" x="0px" y="0px"
	 width="60px" height="59px" viewBox="0 0 60 59" enable-background="new 0 0 60 59" xml:space="preserve">
<g id="Page-1_1_">
	<g id="Perfil" transform="translate(-19.000000, -384.000000)">
		<g id="Group-4" transform="translate(13.000000, 385.000000)">
			<g id="Group-2" transform="translate(7.000000, 0.000000)">
				<g id="Oval">
					<path fill="#FFFFFF" d="M29.75,57.75C13.621,57.75,0.5,44.629,0.5,28.5S13.621-0.75,29.75-0.75C45.879-0.75,59,12.37,59,28.5
						S45.879,57.75,29.75,57.75z M29.75,1.687C14.967,1.687,2.938,13.716,2.938,28.5c0,14.782,12.029,26.813,26.812,26.813
						c14.782,0,26.812-12.031,26.812-26.813C56.562,13.716,44.532,1.687,29.75,1.687z"/>
				</g>
				<g id="_x2B_" transform="translate(5.000000, 5.000000)">
					<g id="Line-3">
						<rect x="28" y="10" fill="#FFFFFF" width="2.438" height="34.856"/>
					</g>
					<g id="Line-3_1_">
						<rect x="12" y="27" fill="#FFFFFF" width="34.125" height="2.438"/>
					</g>
				</g>
			</g>
		</g>
	</g>
</g>
</svg>
