<?xml version="1.0" encoding="utf-8"?>
<!-- Generator: Adobe Illustrator 16.0.0, SVG Export Plug-In . SVG Version: 6.00 Build 0)  -->
<!DOCTYPE svg PUBLIC "-//W3C//DTD SVG 1.1//EN" "http://www.w3.org/Graphics/SVG/1.1/DTD/svg11.dtd">
<svg version="1.1" id="Capa_1" xmlns="http://www.w3.org/2000/svg" xmlns:xlink="http://www.w3.org/1999/xlink" x="0px" y="0px"
	 width="60px" height="59px" viewBox="0 0 60 59" enable-background="new 0 0 60 59" xml:space="preserve">
<path fill="#FFFFFF" d="M54.322,22.28L42.49,54.665h-0.102L30.353,22.28h-3.781c-0.274-0.627-0.61-1.214-1.019-1.753
	c-1.242-1.633-3.137-2.635-5.687-3.01v-0.102c0.748-0.136,1.47-0.383,2.167-0.739c0.696-0.357,1.317-0.85,1.861-1.479
	c0.543-0.629,0.986-1.41,1.326-2.346c0.339-0.935,0.51-2.048,0.51-3.341c0-1.359-0.221-2.608-0.663-3.748
	c-0.442-1.139-1.147-2.116-2.117-2.933c-0.969-0.816-2.218-1.444-3.749-1.887c-1.53-0.441-3.366-0.663-5.508-0.663H0.435V37h14.994
	c1.734,0,3.34-0.179,4.819-0.535c1.479-0.357,2.746-0.943,3.8-1.76c0.364-0.282,0.691-0.606,1-0.949V59h3.468V26.258h0.102
	L40.705,59h3.265l12.036-32.742h0.102V59h3.469V22.28H54.322z M3.903,3.238h8.007c1.904,0,3.51,0.11,4.819,0.331
	c1.309,0.222,2.372,0.579,3.188,1.071c0.816,0.493,1.411,1.14,1.785,1.938c0.374,0.8,0.561,1.777,0.561,2.933
	c0,1.122-0.162,2.117-0.484,2.983c-0.324,0.867-0.859,1.599-1.606,2.193c-0.749,0.596-1.734,1.046-2.958,1.352
	c-1.224,0.306-2.737,0.459-4.539,0.459H3.903V3.238z M23.258,30.497c-0.459,0.97-1.147,1.718-2.065,2.244
	c-0.918,0.527-2.083,0.876-3.494,1.046c-1.411,0.171-3.069,0.255-4.973,0.255H3.903V19.456h9.231c1.632,0,3.111,0.094,4.437,0.28
	c1.326,0.188,2.465,0.536,3.417,1.046c0.951,0.51,1.683,1.232,2.193,2.167c0.51,0.936,0.765,2.168,0.765,3.698
	C23.946,28.245,23.717,29.528,23.258,30.497z"/>
</svg>
