<?xml version="1.0" encoding="utf-8"?>
<!-- Generator: Adobe Illustrator 16.0.0, SVG Export Plug-In . SVG Version: 6.00 Build 0)  -->
<!DOCTYPE svg PUBLIC "-//W3C//DTD SVG 1.1//EN" "http://www.w3.org/Graphics/SVG/1.1/DTD/svg11.dtd">
<svg version="1.1" id="Capa_1" xmlns="http://www.w3.org/2000/svg" xmlns:xlink="http://www.w3.org/1999/xlink" x="0px" y="0px"
	 width="14.338px" height="14px" viewBox="0 0 14.338 14" enable-background="new 0 0 14.338 14" xml:space="preserve">
<g id="Symbols">
	<g id="BARMENU" transform="translate(-149.000000, -19.000000)">
		<g id="ICON-CAMARA" transform="translate(150.000000, 20.000000)">
			<g id="Path">
				<path fill="#FFFFFF" d="M12.939,12.541H-0.581V2.772h3.687l0.589-1.294h4.874l0.586,1.273h3.785V12.541z M0.034,11.927h12.292
					v-8.56H8.76L8.175,2.093H4.091L3.5,3.387H0.034V11.927z"/>
			</g>
			<g id="Oval-2">
				<path fill="#FFFFFF" d="M6.486,10.697c-1.524,0-2.765-1.241-2.765-2.766s1.241-2.766,2.765-2.766s2.766,1.241,2.766,2.766
					S8.011,10.697,6.486,10.697z M6.486,5.781c-1.186,0-2.151,0.965-2.151,2.151s0.965,2.151,2.151,2.151
					c1.187,0,2.151-0.966,2.151-2.151S7.673,5.781,6.486,5.781z"/>
			</g>
			<g id="Oval-3">
				<circle fill="#FFFFFF" cx="11.096" cy="4.552" r="0.615"/>
			</g>
		</g>
	</g>
</g>
</svg>
