<?xml version="1.0" encoding="utf-8"?>
<!-- Generator: Adobe Illustrator 16.0.0, SVG Export Plug-In . SVG Version: 6.00 Build 0)  -->
<!DOCTYPE svg PUBLIC "-//W3C//DTD SVG 1.1//EN" "http://www.w3.org/Graphics/SVG/1.1/DTD/svg11.dtd">
<svg version="1.1" id="Capa_1" xmlns="http://www.w3.org/2000/svg" xmlns:xlink="http://www.w3.org/1999/xlink" x="0px" y="0px"
	 width="149.322px" height="146.504px" viewBox="0 0 149.322 146.504" enable-background="new 0 0 149.322 146.504"
	 xml:space="preserve">
<g>
	<path fill-rule="evenodd" clip-rule="evenodd" fill="#2B2B2B" d="M131.6,77.653c0.119,6.103,0.238,12.204,0.351,18.301
		c-2.124-0.062-4.242-0.117-6.361-0.174c0-1.908,0-3.817,0-5.749c-4.229,0-7.939,0-11.932,0c0.096,2.037,0.175,3.748,0.262,5.607
		c4.255,0,8.033,0,11.812,0c0,1.91,0,3.819,0,5.792c2.209,0,3.921,0,5.783,0c0.105-2.05,0.197-3.827,0.289-5.605
		c1.798,0,3.596,0,5.707,0c0,3.844,0,7.462,0,11.612c4.019,0,7.736,0,11.811,0c0,14.218,0,27.911,0,41.944
		c-15.627,0-31.316,0-47.405,0c-0.105-1.874-0.214-3.795-0.321-5.716c3.912,0,7.824,0,11.752,0c0-4.249,0-7.949,0-11.585
		c-4.037,0-7.738,0-11.611,0c0,4.148,0,7.938,0,11.728c-5.795,0-11.592,0-17.717,0c0-2.084,0-3.798,0-6.046
		c3.721,0,7.452,0,11.414,0c0-4.106,0-7.703,0-11.836c-3.684,0-7.408,0-11.679,0c0-2.438,0-4.355,0-6.273l-0.147,0.138
		c1.875,0,3.75,0,6.141,0c0-2.391,0-4.266,0-6.141l-0.141,0.14c1.926-0.097,3.852-0.194,5.737-0.289c0-2.104,0-3.825,0-5.85
		c-2.128,0-3.933,0-5.737,0l0.141,0.14c0-1.925,0-3.85,0-5.757c2.27-0.273,4.006-0.482,5.72-0.689c0-1.927,0-3.529,0-5.631
		c-3.925,0-7.657,0-11.573,0c-0.166-2.211-0.297-3.941-0.426-5.649c-4.105,0-7.815,0-11.861,0c0,4.135,0,7.931,0,11.726l0.138-0.146
		c-1.821,0-3.641,0-5.991,0c0-6.091,0-12.041,0-17.99l-0.146,0.137c3.925,0,7.851,0,11.718,0c0-2.388,0-4.099,0-6.139
		c-4.134,0-7.926,0-11.718,0l0.14,0.139c0-1.921,0-3.842,0-6c6.378,0,12.19,0,18,0l-0.141-0.14c0,3.905,0,7.811,0,11.776
		c4.371,0,8.08,0,11.793,0c0.236-2.029,0.438-3.769,0.672-5.79c2.061,0,3.861,0,5.662,0c0,1.914,0,3.828,0,5.771
		c4.256,0,7.971,0,11.965,0c-0.097-2.04-0.178-3.753-0.266-5.63c-4.27,0-8.056,0-11.842,0c0-1.918,0-3.836,0-5.754
		c-2.243-0.261-3.979-0.463-5.844-0.68c0-2.087,0-3.891,0-5.694l-0.141,0.14c1.926-0.097,3.852-0.194,5.737-0.289
		c0-2.112,0-3.829,0-5.85c-2.13,0-3.934,0-5.737,0l0.147,0.137c0-3.778,0-7.556,0-11.821c1.844-0.088,3.548-0.17,5.558-0.266
		c0.221,1.981,0.414,3.712,0.646,5.798c1.943,0.101,3.865,0.199,5.786,0.299l-0.138-0.147c0,1.875,0,3.75,0,6.141
		c2.391,0,4.266,0,6.141,0l-0.141-0.14c0.096,1.914,0.189,3.828,0.288,5.812c2.06,0.2,3.784,0.368,5.508,0.536
		c0.229,2.043,0.423,3.769,0.61,5.445c2.033,0.241,3.761,0.446,5.746,0.683c0,2.063,0,3.855,0,5.648c-1.917,0-3.834,0-5.764,0
		c0,2.247,0,3.959,0,5.6c2.037,0,3.756,0,5.622,0c0-2.141,0-3.941,0-5.742c2.043,0.053,4.087,0.104,6.13,0.157L131.6,77.653z
		 M131.623,137.803c0-3.94,0-7.881,0-11.723c-2.289,0-4.023,0-5.758,0c-0.154,1.972-0.281,3.591-0.428,5.451
		c-1.939,0.142-3.684,0.269-5.422,0.395c0,2.074,0,3.79,0,5.736c4.137,0,7.943,0,11.749,0c0,1.916,0,3.833,0,5.688
		c4.272,0,7.985,0,11.681,0c0-3.978,0-7.582,0-11.353c-1.959,0-3.683,0-5.479,0c-0.227,2.004-0.424,3.749-0.656,5.806
		C135.243,137.804,133.433,137.804,131.623,137.803z M101.958,101.958c0,5.943,0,11.647,0,17.438c5.991,0,11.695,0,17.35,0
		c0-6.039,0-11.747,0-17.438C113.348,101.958,107.761,101.958,101.958,101.958z M131.9,113.9c0,2.137,0,3.743,0,5.554
		c1.945,0,3.669,0,5.465,0c0-1.997,0-3.718,0-5.554C135.452,113.9,133.845,113.9,131.9,113.9z M107.318,95.53
		c0-2.167,0-3.891,0-5.583c-1.963,0-3.571,0-5.369,0c0,1.948,0,3.674,0,5.583C103.821,95.53,105.427,95.53,107.318,95.53z"/>
	<path fill-rule="evenodd" clip-rule="evenodd" fill="#2B2B2B" d="M35.6,77.653c0,2.045,0,4.09,0,6.136l0.146-0.138
		c-5.89,0-11.779,0-17.788,0c0,4.335,0,8.042,0,11.745c2.005,0,3.724,0,5.434,0c0.247-2.033,0.455-3.753,0.679-5.606
		c4.112,0,7.894,0,11.675,0l-0.14-0.14c0.097,1.927,0.195,3.853,0.29,5.737c2.104,0,3.825,0,5.85,0c0-2.13,0-3.934,0-5.737
		l-0.137,0.147c5.771,0,11.543,0,17.814,0c0.093,1.844,0.179,3.555,0.291,5.771c-3.988,0-7.713,0-11.789,0
		c-0.129,2.378-0.232,4.295-0.336,6.211l0.142-0.143c-13.798,0-27.595,0-41.978,0c0-10.139,0-20.062,0-29.984L5.607,71.79
		c1.926-0.097,3.852-0.194,5.737-0.289c0-2.104,0-3.825,0-5.85c-2.13,0-3.934,0-5.737,0l0.147,0.137
		c0.004-2.043,0.007-4.085,0.011-6.128l-0.142,0.142c1.817,0,3.633,0,5.959,0c0-4.053,0-7.802,0-11.806c10.232,0,19.955,0,29.883,0
		c0,1.835,0,3.448,0,5.58c-5.728,0-11.477,0-17.496,0c0,2.229,0,3.946,0,5.901c1.749,0.144,3.366,0.275,5.312,0.436
		c0.212,1.696,0.431,3.439,0.699,5.579c1.893,0.101,3.829,0.203,5.764,0.306l-0.137-0.146c0,2.046,0,4.093,0,6.14l0.14-0.14
		c-3.925,0-7.851,0-11.719,0c0,2.377,0,4.089,0,6.139c4.134,0,7.927,0,11.719,0L35.6,77.653z"/>
	<path fill-rule="evenodd" clip-rule="evenodd" fill="#2B2B2B" d="M53.745,47.644c-1.817,0-3.634,0-5.759,0
		c0-11.856,0-23.575,0-35.846c1.925,0,3.842,0,5.758,0l-0.137-0.146c0.097,1.925,0.194,3.85,0.292,5.781
		c2.099,0.242,3.836,0.442,5.861,0.677c0,2.064,0,3.865,0,5.667c-1.917,0-3.835,0-5.764,0c0,2.247,0,3.959,0,5.6
		c2.037,0,3.755,0,5.622,0c0-2.139,0-3.94,0-5.742c1.92,0,3.84,0,6.129,0c0-4.364,0-8.174,0-11.982l-0.14,0.139
		c1.916,0,3.831,0,5.798,0c0.223,2.231,0.395,3.954,0.559,5.607c4.101,0,7.813,0,11.783,0c0-2.131,0-3.938,0-5.747l-0.139,0.147
		c1.98-0.061,3.961-0.122,5.947-0.177c0.006,0.006-0.16-0.14-0.16-0.14c0,3.926,0,7.853,0,11.99
		c-1.757,0.147-3.363,0.282-5.494,0.461c-0.078,1.666-0.16,3.396-0.265,5.633c3.974,0,7.705,0,11.953,0c0,2.39,0,4.303,0,6.215
		l0.142-0.142c-1.809,0-3.618,0-5.887,0c0,5.977,0,11.693,0,17.731c-2.135,0.22-3.859,0.397-5.941,0.611
		c-0.104,1.962-0.203,3.884-0.304,5.807l0.147-0.138c-1.934,0.102-3.867,0.202-5.771,0.302c-0.262,2.124-0.477,3.863-0.686,5.542
		c-1.942,0-3.545,0-5.343,0c0-3.957,0-7.691,0-11.483c2.006-0.229,3.753-0.43,5.646-0.646c0-2.081,0-3.891,0-5.7
		c1.914,0,3.828,0,5.771,0c0-4.257,0-7.971,0-11.965c-2.041,0.097-3.753,0.178-5.629,0.267c0,4.269,0,8.055,0,11.841
		c-1.914-0.101-3.828-0.201-6.184-0.325c0-6.064,0-11.771,0-17.778c-2.195,0.098-3.904,0.174-6.05,0.27c0,6.148,0,11.863,0,17.679
		c-2.272,0-4.083,0-5.894,0l0.14,0.14c0-3.926,0-7.852,0-11.72c-2.388,0-4.099,0-6.14,0c0,4.135,0,7.927,0,11.72L53.745,47.644z"/>
	<path fill-rule="evenodd" clip-rule="evenodd" fill="#2B2B2B" d="M41.443,0c0,13.812,0,27.399,0,41.354
		c-13.706,0-27.412,0-41.443,0C0,27.689,0,13.985,0,0C13.678,0,27.266,0,41.443,0z M35.453,6.072c-10.1,0-19.805,0-29.38,0
		c0,10.062,0,19.771,0,29.386c9.985,0,19.573,0,29.38,0C35.453,25.61,35.453,16.023,35.453,6.072z"/>
	<path fill-rule="evenodd" clip-rule="evenodd" fill="#2B2B2B" d="M149.451,0.069c0,13.959,0,27.546,0,41.391
		c-13.811,0-27.398,0-41.381,0c0-13.626,0-27.332,0-41.391C121.655,0.069,135.36,0.069,149.451,0.069z M113.773,35.416
		c10.131,0,19.836,0,29.557,0c0-10.014,0-19.719,0-29.303c-10.061,0-19.768,0-29.557,0
		C113.773,15.975,113.773,25.443,113.773,35.416z"/>
	<path fill-rule="evenodd" clip-rule="evenodd" fill="#2B2B2B" d="M0.032,107.942c13.941,0,27.528,0,41.379,0
		c0,13.805,0,27.393,0,41.38c-13.608,0-27.315,0-41.379,0C0.032,135.755,0.032,122.05,0.032,107.942z M5.888,143.355
		c10.143,0,19.849,0,29.38,0c0-10.078,0-19.786,0-29.357c-10,0-19.589,0-29.38,0C5.888,123.86,5.888,133.447,5.888,143.355z"/>
	<path fill-rule="evenodd" clip-rule="evenodd" fill="#2B2B2B" d="M53.399,113.486c0.147,1.812,0.294,3.625,0.483,5.966
		c3.647,0,7.361,0,11.54,0c0.1,2.218,0.176,3.935,0.276,6.172c-4.032,0-7.772,0-11.756,0c0,2.224,0,3.942,0,5.922
		c1.812,0.106,3.427,0.201,5.347,0.314c0.216,1.774,0.427,3.515,0.675,5.552c1.732,0,3.454,0,5.492,0
		c0.129-1.666,0.253-3.278,0.409-5.291c3.665,0,7.366,0,11.586,0c0.069,1.536,0.146,3.249,0.238,5.272
		c-2.016,0.209-3.757,0.391-5.996,0.623c0,3.792,0,7.521,0,11.471c-4.098,0-7.69,0-11.643,0c-0.204-1.693-0.412-3.421-0.666-5.535
		c-1.909-0.105-3.838-0.212-5.767-0.318l0.142,0.142c0-1.799,0-3.598,0-5.655c-2.011-0.235-3.747-0.438-5.784-0.676
		c0-7.802,0-15.616,0-23.563c1.995-0.093,3.786-0.177,5.582-0.255C53.564,113.631,53.399,113.486,53.399,113.486z"/>
	<path fill-rule="evenodd" clip-rule="evenodd" fill="#2B2B2B" d="M137.609,53.798c1.812,0,3.623,0,5.718,0
		c0.216,1.898,0.413,3.646,0.646,5.696c1.789,0.142,3.535,0.28,5.477,0.434c0,5.854,0,11.458,0,17.427
		c-1.711,0.203-3.44,0.409-5.465,0.649c0,1.753,0,3.479,0,5.479c1.691,0.139,3.311,0.271,5.311,0.437c0,3.676,0,7.393,0,11.459
		c-1.615,0-3.331,0-5.41,0c-0.127-1.727-0.256-3.472-0.397-5.398c-1.86-0.157-3.482-0.294-5.62-0.475c0-3.687,0-7.428,0-11.523
		c-2.413-0.127-4.34-0.228-6.267-0.329l0.147,0.138c0-1.909,0-3.817,0-6.188c4.219,0,7.937,0,11.594,0c0-2.195,0-3.914,0-5.593
		c-2.045-0.257-3.76-0.472-5.594-0.702c0-4.105,0-7.882,0-11.657L137.609,53.798z"/>
	<path fill-rule="evenodd" clip-rule="evenodd" fill="#2B2B2B" d="M35.745,65.798c0-1.778,0-3.557,0-6c4.056,0,8.028,0,12,0
		l-0.137-0.147c0,1.875,0,3.75,0,6.141c2.39,0,4.265,0,6.14,0l-0.14-0.141c0,3.931,0,7.86,0,12.14c4.527,0,8.333,0,12.14,0
		l-0.14-0.139c0,2.046,0,4.093,0,6.139l0.146-0.137c-5.787,0-11.574,0-17.885,0c0-3.891,0-7.607,0-11.673
		c-2.417-0.13-4.338-0.233-6.259-0.337l0.137,0.147c0-1.875,0-3.75,0-6.14c-2.39,0-4.265,0-6.14,0L35.745,65.798z"/>
	<path fill-rule="evenodd" clip-rule="evenodd" fill="#2B2B2B" d="M83.754,119.653c-1.806,0-3.61,0-5.683,0
		c-0.236,2.004-0.439,3.742-0.678,5.768c-1.749,0-3.471,0-5.456,0c0-3.797,0-7.517,0-11.452c1.778-0.147,3.383-0.28,5.516-0.458
		c0.075-1.663,0.155-3.385,0.247-5.403c-1.966-0.229-3.701-0.432-5.956-0.694c0-1.926,0-3.848,0-5.77l-0.138,0.146
		c3.925,0,7.849,0,11.763,0c0.261,2.242,0.463,3.984,0.697,6.001c2.064,0,3.872,0,5.68,0l-0.141-0.14c0,2.046,0,4.093,0,6.139
		l0.141-0.14c-1.875,0-3.75,0-6.141,0c0,2.391,0,4.266,0,6.141L83.754,119.653z"/>
	<path fill-rule="evenodd" clip-rule="evenodd" fill="#2B2B2B" d="M107.745,53.798c0-1.818,0-3.637,0-5.766
		c9.864,0,19.587,0,29.864,0c0,1.93,0,3.848,0,5.766l0.139-0.146c-5.922,0-11.844,0-17.746,0c-0.275,2.37-0.479,4.115-0.696,6
		c-2.083,0-3.89,0-5.698,0l0.141,0.14c0-1.875,0-3.75,0-6.141c-2.391,0-4.266,0-6.141,0L107.745,53.798z"/>
	<path fill-rule="evenodd" clip-rule="evenodd" fill="#2B2B2B" d="M47.745,59.798c0-1.805,0-3.61,0-5.701
		c1.87-0.218,3.608-0.421,5.71-0.666c0.097-1.932,0.194-3.859,0.291-5.787l-0.138,0.147c2.046,0,4.093,0,6.14,0l-0.14-0.14
		c0.101,1.934,0.202,3.868,0.302,5.771c2.128,0.263,3.87,0.478,5.537,0.684c0,1.947,0,3.558,0,5.426
		c-1.947,0.142-3.693,0.269-5.472,0.398c-0.237,2.074-0.436,3.82-0.653,5.721c-2.092,0-3.903,0-5.714,0l0.14,0.141
		c0-1.875,0-3.75,0-6.141c-2.38,0-4.26,0-6.14,0L47.745,59.798z"/>
	<path fill-rule="evenodd" clip-rule="evenodd" fill="#2B2B2B" d="M83.6,59.788c4.052,0,8.103,0,12.154,0l-0.147-0.137
		c0,2.046,0,4.093,0,6.139l0.141-0.14c-1.926,0.098-3.852,0.195-5.781,0.293c-0.244,2.103-0.447,3.84-0.664,5.707
		c-2.088,0-3.891,0-5.695,0l0.141,0.14c0-4.046,0-8.093,0-12.14L83.6,59.788z"/>
	<path fill-rule="evenodd" clip-rule="evenodd" fill="#2B2B2B" d="M65.754,5.788c0-1.812,0-3.624,0-5.751c3.854,0,7.58,0,11.846,0
		c0,1.924,0,3.838,0,5.751l0.147-0.137c-4.047,0-8.094,0-12.14,0L65.754,5.788z"/>
	<path fill-rule="evenodd" clip-rule="evenodd" fill="#2B2B2B" d="M53.745,11.798c0-1.779,0-3.559,0-6.01c4.059,0,8.034,0,12.009,0
		l-0.146-0.137c0,2.046,0,4.093,0,6.139l0.14-0.139c-4.047,0-8.093,0-12.14,0L53.745,11.798z"/>
	<path fill-rule="evenodd" clip-rule="evenodd" fill="#2B2B2B" d="M5.766,59.66c-1.812,0-3.625,0-5.762,0c0-3.841,0-7.56,0-11.608
		c1.687,0,3.395,0,5.62,0c0,3.914,0,7.832,0,11.75L5.766,59.66z"/>
	<path fill-rule="evenodd" clip-rule="evenodd" fill="#2B2B2B" d="M53.439,108.001c3.918,0,7.836,0,11.99,0c0,1.754,0,3.35,0,5.496
		c-3.938,0-7.978,0-12.023-0.006c-0.006-0.005,0.158,0.14,0.152,0.135c0.001-1.93,0.008-3.854,0.021-5.784
		C53.584,107.836,53.439,108.001,53.439,108.001z"/>
	<path fill-rule="evenodd" clip-rule="evenodd" fill="#2B2B2B" d="M47.59,101.78c1.787,0,3.573,0,5.859,0
		c0,2.139,0,4.174-0.005,6.214c-0.005,0.007,0.14-0.158,0.134-0.152c-1.789-0.086-3.572-0.179-5.846-0.296c0-2.071,0-3.989,0-5.907
		C47.732,101.638,47.59,101.78,47.59,101.78z"/>
	<path fill-rule="evenodd" clip-rule="evenodd" fill="#2B2B2B" d="M53.618,143.634c0,1.802,0,3.603,0,5.741
		c-1.863,0-3.576,0-5.622,0c0-1.644,0-3.359,0-5.599c1.929,0,3.846,0,5.763,0C53.76,143.775,53.618,143.634,53.618,143.634z"/>
	<path fill-rule="evenodd" clip-rule="evenodd" fill="#2B2B2B" d="M95.759,5.775c0-1.795,0-3.59,0-5.717c1.853,0,3.568,0,5.602,0
		c0,1.652,0,3.365,0,5.575c-1.921,0-3.832,0-5.744,0L95.759,5.775z"/>
	<path fill-rule="evenodd" clip-rule="evenodd" fill="#2B2B2B" d="M77.6,5.788c1.877,0,3.753,0,6.009,0c0,2.257,0,4.133,0,6.01
		l0.139-0.147c-1.875,0-3.749,0-6,0c0-2.251,0-4.125,0-5.999L77.6,5.788z"/>
	<path fill-rule="evenodd" clip-rule="evenodd" fill="#2B2B2B" d="M95.617,5.634c-0.008,2.049-0.018,4.098-0.026,6.146l0.142-0.142
		c-2.107-0.049-4.215-0.098-6.329-0.152c-0.007-0.005,0.159,0.141,0.153,0.135c0.086-1.787,0.179-3.569,0.297-5.845
		c2.07,0,3.988,0,5.906-0.001L95.617,5.634z"/>
	<path fill-rule="evenodd" clip-rule="evenodd" fill="#2B2B2B" d="M95.59,11.78c1.801,0,3.602,0,5.741,0c0,1.863,0,3.575,0,5.622
		c-1.641,0-3.352,0-5.599,0c0-1.929,0-3.847,0-5.764C95.732,11.639,95.59,11.78,95.59,11.78z"/>
	<path fill-rule="evenodd" clip-rule="evenodd" fill="#2B2B2B" d="M95.59,35.78c1.801,0,3.602,0,5.741,0c0,1.867,0,3.585,0,5.622
		c-1.64,0-3.352,0-5.599,0c0-1.929,0-3.847,0-5.764C95.732,35.639,95.59,35.78,95.59,35.78z"/>
	<path fill-rule="evenodd" clip-rule="evenodd" fill="#2B2B2B" d="M5.754,71.653c-1.806,0-3.612,0-5.743,0c0-1.887,0-3.609,0-5.865
		c1.898,0,3.82,0,5.743,0l-0.147-0.137c0,2.046,0,4.093,0,6.139L5.754,71.653z"/>
	<path fill-rule="evenodd" clip-rule="evenodd" fill="#2B2B2B" d="M41.61,71.644c0,1.877,0,3.753,0,6.01c-2.256,0-4.133,0-6.009,0
		c0,0,0.146,0.137,0.146,0.137c0-2.046,0-4.093,0-6.139l-0.14,0.14c2.046,0,4.093,0,6.14,0L41.61,71.644z"/>
	<path fill-rule="evenodd" clip-rule="evenodd" fill="#2B2B2B" d="M35.601,83.789c1.88,0,3.761,0,6.009,0c0,2.256,0,4.132,0,6.009
		l0.137-0.147c-2.046,0-4.093,0-6.14,0l0.14,0.14c0-2.046,0-4.093,0-6.139L35.601,83.789z"/>
	<path fill-rule="evenodd" clip-rule="evenodd" fill="#2B2B2B" d="M131.455,65.541c-1.945,0-3.551,0-5.465,0
		c0-1.838,0-3.563,0-5.554c1.797,0,3.521,0,5.465,0C131.455,61.794,131.455,63.4,131.455,65.541z"/>
	<path fill-rule="evenodd" clip-rule="evenodd" fill="#2B2B2B" d="M108,107.947c1.999,0,3.606,0,5.44,0c0,1.825,0,3.435,0,5.406
		c-1.666,0-3.391,0-5.44,0C108,111.732,108,110.012,108,107.947z"/>
	<path fill-rule="evenodd" clip-rule="evenodd" fill="#2B2B2B" d="M29.396,29.483c-5.802,0-11.39,0-17.349,0
		c0-5.69,0-11.398,0-17.438c5.653,0,11.358,0,17.349,0C29.396,17.836,29.396,23.54,29.396,29.483z"/>
	<path fill-rule="evenodd" clip-rule="evenodd" fill="#2B2B2B" d="M137.339,29.483c-5.991,0-11.579,0-17.412,0
		c0-5.818,0-11.406,0-17.38c5.649,0,11.357,0,17.412,0C137.339,17.715,137.339,23.422,137.339,29.483z"/>
	<path fill-rule="evenodd" clip-rule="evenodd" fill="#2B2B2B" d="M11.771,137.415c0-5.969,0-11.438,0-17.301
		c5.782,0,11.491,0,17.557,0c0,5.577,0,11.284,0,17.301C23.612,137.415,17.907,137.415,11.771,137.415z"/>
</g>
</svg>
